<svg xmlns="http://www.w3.org/2000/svg" version="1.1" xmlns:xlink="http://www.w3.org/1999/xlink" xmlns:svgjs="http://svgjs.com/svgjs" width="768" height="800" preserveAspectRatio="none" viewBox="0 0 768 800">
    <g mask="url(&quot;#SvgjsMask1032&quot;)" fill="none">
        <rect width="768" height="800" x="0" y="0" fill="rgba(245, 247, 250, 1)"></rect>
        <path d="M-82.36 653.74 a237.65 237.65 0 1 0 475.3 0 a237.65 237.65 0 1 0 -475.3 0z" fill="rgba(18, 128, 191, 0.1)" class="triangle-float2"></path>
        <path d="M43.56 543.28 a128.33 128.33 0 1 0 256.66 0 a128.33 128.33 0 1 0 -256.66 0z" fill="rgba(18, 128, 191, 0.1)" class="triangle-float3"></path>
        <path d="M251.26 428.45 a145.85 145.85 0 1 0 291.7 0 a145.85 145.85 0 1 0 -291.7 0z" fill="rgba(18, 128, 191, 0.1)" class="triangle-float1"></path>
        <path d="M364.39 296.81 a247.6 247.6 0 1 0 495.2 0 a247.6 247.6 0 1 0 -495.2 0z" fill="rgba(18, 128, 191, 0.1)" class="triangle-float2"></path>
    </g>
    <defs>
        <mask id="SvgjsMask1032">
            <rect width="768" height="800" fill="#ffffff"></rect>
        </mask>
    </defs>
</svg>