<svg xmlns="http://www.w3.org/2000/svg" version="1.1" xmlns:xlink="http://www.w3.org/1999/xlink" xmlns:svgjs="http://svgjs.com/svgjs" width="1440" height="560" preserveAspectRatio="none" viewBox="0 0 1440 560">
    <g mask="url(&quot;#SvgjsMask1000&quot;)" fill="none">
        <rect width="1440" height="560" x="0" y="0" fill="rgba(245, 247, 250, 1)"></rect>
        <path d="M1116.54 539.96 a101.22 101.22 0 1 0 202.44 0 a101.22 101.22 0 1 0 -202.44 0z" fill="rgba(18, 128, 191, 0.1)" class="triangle-float1"></path>
        <path d="M724.67 501.15 a137.72 137.72 0 1 0 275.44 0 a137.72 137.72 0 1 0 -275.44 0z" fill="rgba(18, 128, 191, 0.1)" class="triangle-float2"></path>
        <path d="M922.04 62.01 a97.89 97.89 0 1 0 195.78 0 a97.89 97.89 0 1 0 -195.78 0z" fill="rgba(18, 128, 191, 0.1)" class="triangle-float3"></path>
        <path d="M0.87 402.27 a143.37 143.37 0 1 0 286.74 0 a143.37 143.37 0 1 0 -286.74 0z" fill="rgba(18, 128, 191, 0.1)" class="triangle-float2"></path>
    </g>
    <defs>
        <mask id="SvgjsMask1000">
            <rect width="1440" height="560" fill="#ffffff"></rect>
        </mask>
    </defs>
</svg>