<svg xmlns="http://www.w3.org/2000/svg" version="1.1" xmlns:xlink="http://www.w3.org/1999/xlink" xmlns:svgjs="http://svgjs.com/svgjs" width="1440" height="560" preserveAspectRatio="none" viewBox="0 0 1440 560"><g mask="url(&quot;#SvgjsMask1043&quot;)" fill="none"><rect width="1440" height="560" x="0" y="0" fill="rgba(245, 247, 250, 1)"></rect><path d="M301.83 241.91 a129.39 129.39 0 1 0 258.78 0 a129.39 129.39 0 1 0 -258.78 0z" fill="rgba(18, 128, 191, 0.1)" class="triangle-float3"></path><path d="M1159.68 457.46 a120.75 120.75 0 1 0 241.5 0 a120.75 120.75 0 1 0 -241.5 0z" fill="rgba(18, 128, 191, 0.1)" class="triangle-float2"></path><path d="M667.4 515.38 a146.96 146.96 0 1 0 293.92 0 a146.96 146.96 0 1 0 -293.92 0z" fill="rgba(18, 128, 191, 0.1)" class="triangle-float1"></path><path d="M223.93 84.38 a136.2 136.2 0 1 0 272.4 0 a136.2 136.2 0 1 0 -272.4 0z" fill="rgba(18, 128, 191, 0.1)" class="triangle-float2"></path></g><defs><mask id="SvgjsMask1043"><rect width="1440" height="560" fill="#ffffff"></rect></mask><style>
            @keyframes float1 {
                0%{transform: translate(0, 0)}
                50%{transform: translate(-10px, 0)}
                100%{transform: translate(0, 0)}
            }

            .triangle-float1 {
                animation: float1 5s infinite;
            }

            @keyframes float2 {
                0%{transform: translate(0, 0)}
                50%{transform: translate(-5px, -5px)}
                100%{transform: translate(0, 0)}
            }

            .triangle-float2 {
                animation: float2 4s infinite;
            }

            @keyframes float3 {
                0%{transform: translate(0, 0)}
                50%{transform: translate(0, -10px)}
                100%{transform: translate(0, 0)}
            }

            .triangle-float3 {
                animation: float3 6s infinite;
            }
        </style></defs></svg>